<svg xmlns="http://www.w3.org/2000/svg" viewBox="0 0 18.97 18.97">
  <rect id="placeholder" fill="transparent" width="18.97" height="18.97" />
  <path fill="currentColor" d="M13,10.51H6a1,1,0,0,1,0-2h7a1,1,0,0,1,0,2Z" />
  <path
    fill="currentColor"
    d="M5.73,15.28h0A5.76,5.76,0,0,1,0,9.54,5.64,5.64,0,0,1,1.74,5.47,5.79,5.79,0,0,1,5.92,3.83a1,1,0,0,1,1,1,1,1,0,0,1-1,1A3.76,3.76,0,0,0,3.14,6.91,3.65,3.65,0,0,0,2,9.55a3.75,3.75,0,0,0,3.73,3.72,1,1,0,0,1,1,1A1,1,0,0,1,5.73,15.28Z"
  />
  <path
    fill="currentColor"
    d="M13.19,15.28a1,1,0,1,1,0-2A3.8,3.8,0,0,0,17,9.5a3.71,3.71,0,0,0-1.15-2.67,3.76,3.76,0,0,0-2.75-1.08,1,1,0,0,1-1-1,1,1,0,0,1,1-1,5.81,5.81,0,0,1,4.21,1.65A5.71,5.71,0,0,1,19,9.5a5.8,5.8,0,0,1-5.78,5.78Z"
  />
</svg>
